<svg xmlns="http://www.w3.org/2000/svg" width="163" height="60" fill="none"><g clip-path="url(#a)"><path fill="#fff" d="M88.88 19.99v.434c0 .97-.736 1.705-1.706 1.705h-3.81c-.87 0-1.672.902-1.672 1.672v16.176c0 .97-.735 1.705-1.706 1.705h-.768c-.97 0-1.705-.735-1.705-1.705V23.799c0-.87-.902-1.672-1.672-1.672h-4.11c-.97 0-1.705-.735-1.705-1.705v-.434c0-.97.735-1.705 1.705-1.705h15.441c.97 0 1.705.735 1.705 1.705l.002.002ZM89.548 29.983c0-6.684 5.448-12.098 12.132-12.098 6.684 0 12.132 5.414 12.132 12.098 0 6.685-5.448 12.132-12.132 12.132-6.684 0-12.132-5.414-12.132-12.132Zm20.086 0c0-4.345-3.644-8.255-7.987-8.255-4.344 0-7.92 3.91-7.92 8.255 0 4.346 3.61 8.256 7.92 8.289 4.345.033 7.987-3.943 7.987-8.288ZM117.154 39.977V19.99c0-.97.735-1.705 1.705-1.705h.768c.702 0 1.705 1.003 2.138 1.571l6.451 7.553c.735.87 1.604.87 2.339 0l6.416-7.553c.301-.4 1.404-1.57 2.172-1.57h.768c.97 0 1.705.734 1.705 1.704v19.987c0 .97-.735 1.705-1.705 1.705h-.768c-.971 0-1.705-.735-1.705-1.705V29.515c0-1.538-1.07-1.938-2.073-.768l-4.345 5.014c-1.037 1.203-2.24 1.203-3.276 0l-4.346-5.014c-1.003-1.17-2.072-.768-2.072.768v10.462c0 .97-.735 1.705-1.705 1.705h-.768c-.97 0-1.705-.735-1.705-1.705h.006ZM150.475 23.799v2.741c0 .87.902 1.672 1.67 1.672h6.216c.97 0 1.705.735 1.705 1.705v.434c0 .97-.735 1.705-1.705 1.705h-6.216c-.869 0-1.67.902-1.67 1.672v2.44c0 .869.902 1.672 1.67 1.672h8.891c.97 0 1.705.735 1.705 1.705v.434c0 .97-.735 1.705-1.705 1.705h-13.034c-.97 0-1.705-.735-1.705-1.705V19.99c0-.97.735-1.705 1.705-1.705h13.201c.971 0 1.706.735 1.706 1.705v.434c0 .97-.735 1.705-1.706 1.705h-9.058c-.869 0-1.67.902-1.67 1.672v-.002ZM30 60c-8.014 0-15.547-3.12-21.213-8.787C3.121 45.548 0 38.013 0 30c0-8.014 3.12-15.547 8.787-21.213C14.453 3.121 21.987 0 30 0c8.013 0 15.547 3.12 21.213 8.787C56.879 14.453 60 21.987 60 30c0 8.013-3.12 15.547-8.787 21.213C45.547 56.879 38.013 60 30 60Zm0-57.574c-7.365 0-14.29 2.868-19.497 8.077C5.294 15.71 2.426 22.635 2.426 30s2.868 14.29 8.077 19.497C15.71 54.706 22.635 57.574 30 57.574s14.29-2.868 19.497-8.077C54.706 44.29 57.574 37.365 57.574 30s-2.868-14.29-8.077-19.497C44.29 5.294 37.365 2.426 30 2.426Z"/><path fill="#E0E0E0" d="M33.88 47.23c-.747 0-1.425-.51-1.606-1.268-.09-.37-2.11-9.183 3.484-17.423 4.713-6.943 12.781-6.202 13.122-6.166a1.655 1.655 0 0 1-.337 3.29c-.01 0-1.673-.149-3.755.386-2.685.69-4.803 2.153-6.293 4.348-4.752 6.999-3.02 14.721-3.003 14.8a1.656 1.656 0 0 1-1.614 2.033h.002Z"/><path fill="#E0E0E0" d="M41.37 39.324a1.633 1.633 0 0 1-1.863-1.791c.135-1.238.538-2.871 1.61-4.45.847-1.247 1.97-2.005 2.938-2.462a1.636 1.636 0 0 1 2.323 1.258l.005.04a1.645 1.645 0 0 1-.936 1.7c-.531.254-1.146.665-1.592 1.321-.703 1.034-.967 2.12-1.058 2.926a1.664 1.664 0 0 1-1.427 1.458Z"/><path fill="#fff" d="M49.49 15.107c-.13-.013-3.233-.316-7.196.666-.804.2-1.587.438-2.345.713l-.045.016c-.975.356-1.91.775-2.805 1.254-3.955 1.683-11.486 4.544-16.882 4.477-5.852-.073-9.475-1.38-9.524-1.397a1.654 1.654 0 0 0-1.154 3.102c.167.062 4.152 1.523 10.637 1.605l.224.001c3.013 0 6.487-.746 9.724-1.712a20.55 20.55 0 0 0-.402.57c-3.573 5.26-5.38 11.596-5.227 18.32.115 5.07 1.291 8.577 1.342 8.724a1.653 1.653 0 0 0 2.097 1.032 1.656 1.656 0 0 0 1.036-2.097c-.01-.032-1.081-3.26-1.169-7.849-.116-6.074 1.452-11.548 4.659-16.272 1.566-2.307 3.546-4.126 5.916-5.442a69.427 69.427 0 0 0 2.768-1.246c.593-.21 1.204-.398 1.835-.557 3.426-.869 6.152-.616 6.175-.614a1.655 1.655 0 0 0 .337-3.29v-.004Z"/><path fill="#E0E0E0" d="M20.08 17.85c-4.005 0-7.398-.744-7.583-.785a1.655 1.655 0 0 1 .718-3.23c.054.012 5.455 1.188 10.276.473 4.799-.712 10.243-3.973 10.297-4.006a1.656 1.656 0 0 1 1.712 2.832c-.245.148-6.058 3.636-11.524 4.446a26.8 26.8 0 0 1-3.897.268l.001.001ZM19.814 46.72c-.749 0-1.427-.511-1.608-1.271-1.234-5.19-.453-9.814.27-12.475-1.877-.04-4.578-.273-7.21-1.123-.857-.277-1.38-1.174-1.135-2.04a1.656 1.656 0 0 1 2.106-1.125c4.003 1.308 8.36.938 8.405.934l1.854-.166a.55.55 0 0 1 .554.77l-.746 1.707c-.024.055-2.502 5.92-.878 12.753a1.654 1.654 0 0 1-1.612 2.038v-.001Z"/></g><defs><clipPath id="a"><path fill="#fff" d="M0 0h162.909v60H0z"/></clipPath></defs></svg>